# xmcd CD database file
#
# Track frame offsets:
#	150
#	15697
#	31140
#	46968
#	63771
#	78569
#	94609
#	108477
#	119935
#	131941
#	146414
#	159732
#	172847
#	185739
#	198932
#	210348
#	224571
#	239564
#
# Disc length: 3388 seconds
#
# Revision: 0
# Processed by: cddbd v1.5.1PL0 Copyright (c) Steve Scherf et al.
# Submitted via: CDex 1.50beta9
#
DISCID=070d3a12
DTITLE=Wild Bill Davidson - The Discovery Of Jazz Pt. 1
DYEAR=1900
DGENRE=Jazz
TTITLE0=I Never Knew I Could Love Anybody
TTITLE1=Mandy, Make Up Your Mind
TTITLE2=None Of My Jelly Roll
TTITLE3=As Long As I Live
TTITLE4=Muskrat Ramble
TTITLE5=I´m Confessin´ (That I Love You)
TTITLE6=At The Jazz Band Ball
TTITLE7=Squeeze Me
TTITLE8=I´m Comin´ Virginia
TTITLE9=Original Dixieland One Step
TTITLE10=Baby, Won´t You Please Come Home?
TTITLE11=On The Alamo
TTITLE12=A Monday Date
TTITLE13=Someday, Sweetheart
TTITLE14=Avalon
TTITLE15=St. Louis Blues
TTITLE16=I Wish I Could Shimmy Like My Sister Kate
TTITLE17=Big Butter And Egg Man
EXTD=
EXTT0=
EXTT1=
EXTT2=
EXTT3=
EXTT4=
EXTT5=
EXTT6=
EXTT7=
EXTT8=
EXTT9=
EXTT10=
EXTT11=
EXTT12=
EXTT13=
EXTT14=
EXTT15=
EXTT16=
EXTT17=
PLAYORDER=
